# xmcd
#
# Track frame offsets:
#	150
#	17740
#	39762
#	57055
#	84862
#	106667
#	123062
#	139325
#	151202
#	173057
#	193862
#	216587
#	233440
#	256712
#
# Disc length: 3485 seconds
#
# Revision: 0
# Processed by: cddbd v1.4PL0 Copyright (c) Steve Scherf et al.
# Submitted via: dBpowerAMP V4.0
#
DISCID=a40d9b0e
DTITLE=Jesse Evans And The Crash - Hunger
DYEAR=2001
DGENRE=Blues
TTITLE0=To Be Loved
TTITLE1=My World Is Changing
TTITLE2=Cold Heart
TTITLE3=Sea Of Happiness
TTITLE4=Treason
TTITLE5=From Where I Stand
TTITLE6=Caught Up In You
TTITLE7=Don't Keep Me Wondering
TTITLE8=295 Tears
TTITLE9=Bad Love
TTITLE10=Superhypermost
TTITLE11=Avenue D
TTITLE12=Gasoline
TTITLE13=Bonus Track !!!
EXTD=Great 3 piece Manhatten Rock/Blues Band\nSubmitted by Baz ... :0)~
EXTT0=
EXTT1=
EXTT2=
EXTT3=
EXTT4=
EXTT5=
EXTT6=
EXTT7=
EXTT8=
EXTT9=
EXTT10=
EXTT11=
EXTT12=
EXTT13=
PLAYORDER=
